<?xml version="1.0" encoding="utf-8"?>
<!-- Generator: Adobe Illustrator 19.0.0, SVG Export Plug-In . SVG Version: 6.00 Build 0)  -->
<svg version="1.1" id="Camada_1" xmlns="http://www.w3.org/2000/svg" xmlns:xlink="http://www.w3.org/1999/xlink" x="0px" y="0px"
	 viewBox="0 0 32 32" style="enable-background:new 0 0 32 32;" xml:space="preserve">
<style type="text/css">
	.st0{fill:#B1B1B1;}
</style>
<g id="_x31_3_3_">
	<path id="XMLID_1195_" class="st0" d="M13.5,14.5v4.6h4.9v-4.6c0,0,0-0.1,0-0.1L13.5,14.5C13.5,14.4,13.5,14.5,13.5,14.5z"/>
	<path id="XMLID_1194_" class="st0" d="M20.8,14.5v4.6h5.1v-4.7L20.8,14.5C20.8,14.4,20.8,14.5,20.8,14.5z"/>
	<path id="XMLID_1193_" class="st0" d="M18.5,21.4h-4.9V26c0,0,0,0.1,0,0.1h4.9c0,0,0-0.1,0-0.1V21.4z"/>
	<path id="XMLID_1192_" class="st0" d="M6.1,19.1h5.1v-4.6c0,0,0-0.1,0-0.1H6.1V19.1z"/>
	<path id="XMLID_1191_" class="st0" d="M20.8,26C20.8,26,20.8,26.1,20.8,26l5.1,0.1v-4.7h-5.1V26z"/>
	<path id="XMLID_1190_" class="st0" d="M11.2,21.4H6.1v4.7h5.1c0,0,0-0.1,0-0.1V21.4z"/>
	<path id="XMLID_1187_" class="st0" d="M29.2,0H2.8C1.3,0,0,1.2,0,2.8v26.5C0,30.8,1.3,32,2.8,32h26.3c1.6,0,2.8-1.2,2.8-2.8V2.8
		C32,1.2,30.7,0,29.2,0z M29.7,29.2c0,0.3-0.2,0.5-0.5,0.5H2.8c-0.3,0-0.5-0.2-0.5-0.5v-20h4.8V6.8c0-1.2,1-2.1,2.2-2.1h0
		c1.2,0,2.2,0.9,2.2,2.1v2.5h9V6.8c0-1.2,1-2.1,2.2-2.1c1.2,0,2.2,0.9,2.2,2.1v2.5h4.9V29.2z"/>
</g>
</svg>
