<?xml version="1.0" encoding="utf-8"?>
<!-- Generator: Adobe Illustrator 19.0.0, SVG Export Plug-In . SVG Version: 6.00 Build 0)  -->
<svg version="1.1" id="Camada_1" xmlns="http://www.w3.org/2000/svg" xmlns:xlink="http://www.w3.org/1999/xlink" x="0px" y="0px"
	 viewBox="0 0 32 32" style="enable-background:new 0 0 32 32;" xml:space="preserve">
<style type="text/css">
	.st0{fill:#848484;}
</style>
<g id="XMLID_1_">
	<path id="XMLID_615_" class="st0" d="M12.7,7.2c0.1,0.1,0.1,0.2,0.2,0.3l0,0c0,0,0,0,0,0c0,0,0,0,0,0c0,0,0,0,0,0c0,0,0,0,0,0
		c0,0,0,0,0,0c0,0,0,0,0,0c0,0,0,0,0,0c0,0,0,0,0,0l0,0l0,0l0,0l0,0c0,0,0,0,0,0c0,0,0,0,0,0c0,0,0,0,0,0c0,0,0,0,0,0c0,0,0,0,0,0
		c0,0,0,0,0,0c0,0,0,0,0,0c0,0,0,0,0,0c0,0,0,0,0,0c0,0.1-0.1,0.2-0.2,0.3l-3.8,3.2c-0.2,0.2-0.6,0.2-0.8-0.1
		C8,10.9,8,10.6,8.3,10.4l2.7-2.2H0.8c-0.3,0-0.5-0.2-0.5-0.5c0-0.3,0.2-0.5,0.5-0.5h10.1L8.3,4.8C8,4.6,8,4.3,8.2,4.1
		C8.4,3.8,8.7,3.8,8.9,4L12.7,7.2z"/>
	<g id="_x31_2_6_">
		<g id="_x38__7_">
			<path id="XMLID_613_" class="st0" d="M22.5,14c0.9-0.5,1.1-0.3,1.1-0.3l2.2,1.8c0.5,0.5,1.3,0.5,1.9,0l3.6-3
				c0.5-0.4,0.6-1.2,0.3-1.8l-1-1.5c-0.1-0.1-0.2-0.3-0.3-0.4C26.6,5.7,20,9.1,14.7,13.5C9.5,17.8,4.7,23.9,7.4,28
				c0.1,0.1,0.2,0.2,0.3,0.3L9,29.6c0.5,0.5,1.3,0.5,1.8,0l3.6-3c0.6-0.5,0.7-1.3,0.3-1.9l-1.4-2.4c0,0-0.2-1,4.6-5
				c1.7-1.5,3-2.3,3.8-2.9C22,14.3,22.3,14.1,22.5,14"/>
		</g>
	</g>
</g>
</svg>
