<?xml version="1.0" encoding="utf-8"?>
<!-- Generator: Adobe Illustrator 19.0.0, SVG Export Plug-In . SVG Version: 6.00 Build 0)  -->
<svg version="1.1" id="Camada_1" xmlns="http://www.w3.org/2000/svg" xmlns:xlink="http://www.w3.org/1999/xlink" x="0px" y="0px"
	 viewBox="0 0 32 32" style="enable-background:new 0 0 32 32;" xml:space="preserve">
<style type="text/css">
	.st0{fill:url(#XMLID_5_);}
	.st1{fill:#26703D;}
</style>
<linearGradient id="XMLID_5_" gradientUnits="userSpaceOnUse" x1="-2.072284e-008" y1="15.9378" x2="31.8757" y2="15.9378">
	<stop  offset="0" style="stop-color:#D6913C"/>
	<stop  offset="1" style="stop-color:#C76C39"/>
</linearGradient>
<path id="XMLID_2_" class="st0" d="M15.9,31.9C7.1,31.9,0,24.7,0,15.9C0,7.1,7.1,0,15.9,0c8.8,0,15.9,7.1,15.9,15.9
	C31.9,24.7,24.7,31.9,15.9,31.9z M15.9,1.3C7.9,1.3,1.3,7.9,1.3,15.9c0,8.1,6.6,14.6,14.6,14.6c8.1,0,14.6-6.6,14.6-14.6
	C30.6,7.9,24,1.3,15.9,1.3z"/>
<g id="XMLID_25_">
	<g id="XMLID_72_">
		<g id="_x31_2">
			<g id="_x38__2_">
				<path id="XMLID_68_" class="st1" d="M12.7,14.1c-0.3-0.5-0.3-0.7-0.3-0.7l1-1.5c0.3-0.4,0.2-0.9-0.1-1.2l-2.1-2.1
					c-0.3-0.3-0.8-0.3-1.1-0.1L9.1,9.2C9,9.3,9,9.3,8.9,9.4C7.1,12,9.6,16,12.8,19.1c3.1,3,7.2,5.8,9.7,3.8c0.1-0.1,0.1-0.1,0.2-0.2
					l0.7-0.9c0.3-0.3,0.2-0.8-0.1-1.1l-2.1-2.1c-0.3-0.3-0.8-0.4-1.2-0.1l-1.5,1c0,0-0.6,0.2-3.5-2.6c-1-1-1.7-1.8-2.1-2.3
					C12.8,14.4,12.7,14.2,12.7,14.1"/>
			</g>
		</g>
	</g>
	<g id="XMLID_27_">
		<path id="XMLID_14_" class="st1" d="M18.6,14.1L18.6,14.1c-0.4,0-0.7-0.3-0.7-0.7V9c0-0.4,0.3-0.7,0.7-0.7h0
			c0.4,0,0.7,0.3,0.7,0.7v4.3C19.3,13.7,19,14.1,18.6,14.1z"/>
		<path id="XMLID_15_" class="st1" d="M21.1,14.1L21.1,14.1c-0.4,0-0.7-0.3-0.7-0.7V9c0-0.4,0.3-0.7,0.7-0.7h0
			c0.4,0,0.7,0.3,0.7,0.7v4.3C21.8,13.7,21.5,14.1,21.1,14.1z"/>
	</g>
</g>
</svg>
