<?xml version="1.0" encoding="utf-8"?>
<!-- Generator: Adobe Illustrator 19.0.0, SVG Export Plug-In . SVG Version: 6.00 Build 0)  -->
<svg version="1.1" id="Camada_1" xmlns="http://www.w3.org/2000/svg" xmlns:xlink="http://www.w3.org/1999/xlink" x="0px" y="0px"
	 viewBox="0 0 32 32" style="enable-background:new 0 0 32 32;" xml:space="preserve">
<style type="text/css">
	.st0{fill:#FFFFFF;}
</style>
<g id="XMLID_40_">
	<g id="XMLID_374_">
		<polygon id="XMLID_368_" class="st0" points="16,17.3 12.6,13.8 10.5,15.9 16,21.5 30.7,6.9 28.6,4.8 		"/>
	</g>
	<path id="XMLID_41_" class="st0" d="M16,32C7.2,32,0,24.8,0,16C0,7.2,7.2,0,16,0c2.7,0,5.3,0.7,7.7,2l-0.3,0.6
		c-2.2-1.2-4.8-1.9-7.3-1.9C7.6,0.7,0.7,7.6,0.7,16c0,8.4,6.9,15.3,15.3,15.3c8.4,0,15.3-6.9,15.3-15.3c0-0.2,0-0.5,0-0.7l0.7,0
		c0,0.2,0,0.5,0,0.7C32,24.8,24.8,32,16,32z"/>
</g>
</svg>
