<?xml version="1.0" encoding="utf-8"?>
<!-- Generator: Adobe Illustrator 19.0.0, SVG Export Plug-In . SVG Version: 6.00 Build 0)  -->
<svg version="1.1" id="Camada_1" xmlns="http://www.w3.org/2000/svg" xmlns:xlink="http://www.w3.org/1999/xlink" x="0px" y="0px"
	 viewBox="0 0 32 32" style="enable-background:new 0 0 32 32;" xml:space="preserve">
<style type="text/css">
	.st0{display:none;fill:#B1B1B1;}
	.st1{fill:#DCA64A;}
</style>
<path id="XMLID_1175_" class="st0" d="M32.9,3.1c0.1,0.1,0.2,0.2,0.2,0.3c0,0,0,0,0,0c0,0,0,0,0,0.1c0,0,0,0,0,0c0,0,0,0,0,0
	c0,0,0,0,0,0c0,0,0,0,0,0c0,0,0,0,0,0c0,0,0,0,0,0c0,0,0,0,0,0c0,0,0,0,0,0l0,0c0,0,0,0,0,0c0,0,0,0,0,0c0,0,0,0,0,0c0,0,0,0,0,0
	c0,0,0,0,0,0c0,0,0,0,0,0c0,0,0,0,0,0c0,0,0,0,0,0c0,0,0,0,0,0c0,0,0,0,0,0.1c0,0,0,0,0,0c0,0.1-0.1,0.2-0.2,0.3l-5.1,4.3
	c-0.3,0.3-0.8,0.2-1-0.1c-0.3-0.3-0.2-0.8,0.1-1l3.6-3H16.8c-0.4,0-0.7-0.3-0.7-0.7s0.3-0.7,0.7-0.7h13.6l-3.6-3
	c-0.3-0.3-0.3-0.7-0.1-1c0.3-0.3,0.7-0.3,1-0.1L32.9,3.1z"/>
<path id="XMLID_1174_" class="st0" d="M16.3,10.7c-0.1,0.1-0.2,0.2-0.2,0.3c0,0,0,0,0,0c0,0,0,0,0,0.1c0,0,0,0,0,0c0,0,0,0,0,0
	c0,0,0,0,0,0c0,0,0,0,0,0c0,0,0,0,0,0c0,0,0,0,0,0c0,0,0,0,0,0c0,0,0,0,0,0l0,0l0,0c0,0,0,0,0,0c0,0,0,0,0,0c0,0,0,0,0,0
	c0,0,0,0,0,0c0,0,0,0,0,0c0,0,0,0,0,0c0,0,0,0,0,0c0,0,0,0,0,0c0,0,0,0,0,0.1c0,0,0,0,0,0c0,0.1,0.1,0.2,0.2,0.3l5.1,4.3
	c0.3,0.3,0.8,0.2,1-0.1c0.3-0.3,0.2-0.8-0.1-1l-3.6-3h13.6c0.4,0,0.7-0.3,0.7-0.7c0-0.4-0.3-0.7-0.7-0.7H18.8l3.6-3
	c0.3-0.3,0.3-0.7,0.1-1c-0.3-0.3-0.7-0.3-1-0.1L16.3,10.7z"/>
<g id="XMLID_1179_">
	<g id="XMLID_1180_">
		<path id="XMLID_1183_" class="st1" d="M18.1,4.6c0.4-0.5,0.6-1.1,0.6-1.8c0-1.6-1.3-2.9-2.9-2.9C14.3,0,13,1.3,13,2.9
			c0,0.7,0.2,1.3,0.6,1.8c-1.2,0.6-2.1,2-2.1,3.4c0,0.4,0.3,0.9,0.7,0.9h7.2c0.4,0,0.7-0.5,0.7-0.9C20.2,6.6,19.4,5.2,18.1,4.6z"/>
		<path id="XMLID_1182_" class="st1" d="M22.8,14h7.2c0.4,0,0.7-0.7,0.7-1.1c0-1.4-0.9-2.8-2.1-3.4C29,9,29.2,8.3,29.2,7.6
			c0-1.6-1.3-2.9-2.9-2.9c-1.6,0-2.9,1.3-2.9,2.8c0,0.7,0.2,1.3,0.6,1.8c-1.2,0.6-2.1,2.2-2.1,3.6C22.1,13.3,22.4,14,22.8,14z"/>
		<path id="XMLID_1181_" class="st1" d="M29.9,20.1c0.4-0.5,0.6-1.1,0.6-1.8c0-1.6-1.3-2.9-2.9-2.9c-1.6,0-2.9,1.3-2.9,2.9
			c0,0.7,0.2,1.3,0.6,1.8c-1.2,0.6-2.1,1.8-2.1,3.2c0,0.4,0.3,0.7,0.7,0.7h7.2c0.4,0,0.7-0.3,0.7-0.7C32,21.9,31.2,20.6,29.9,20.1z"
			/>
	</g>
</g>
<g id="_x31_2_8_">
	<g id="_x38__9_">
		<path id="XMLID_1178_" class="st1" d="M6.7,15.5c-0.5-0.9-0.4-1.2-0.4-1.2l1.9-2.3c0.5-0.6,0.5-1.4,0-2L5.1,6.4
			C4.7,5.8,3.9,5.7,3.3,6.1l-1.6,1C1.5,7.2,1.4,7.3,1.3,7.4C-2,11.3,1.5,18.1,6.2,23.6C10.7,29,17,34,21.4,31.2
			c0.1-0.1,0.2-0.2,0.3-0.3l1.3-1.4c0.5-0.5,0.5-1.3,0-1.9l-3.1-3.7c-0.5-0.6-1.3-0.7-2-0.3l-2.6,1.4c0,0-1,0.3-5.2-4.8
			c-1.5-1.8-2.4-3.1-3-4C7,16,6.8,15.7,6.7,15.5"/>
	</g>
</g>
</svg>
