<?xml version="1.0" encoding="utf-8"?>
<!-- Generator: Adobe Illustrator 19.0.0, SVG Export Plug-In . SVG Version: 6.00 Build 0)  -->
<svg version="1.1" id="Camada_1" xmlns="http://www.w3.org/2000/svg" xmlns:xlink="http://www.w3.org/1999/xlink" x="0px" y="0px"
	 viewBox="0 0 32 32" style="enable-background:new 0 0 32 32;" xml:space="preserve">
<style type="text/css">
	.st0{display:none;fill:#B1B1B1;}
	.st1{fill:url(#XMLID_41_);}
	.st2{fill:#FFFFFF;}
</style>
<path id="XMLID_1175_" class="st0" d="M32.9,3.1c0.1,0.1,0.2,0.2,0.2,0.3c0,0,0,0,0,0c0,0,0,0,0,0.1c0,0,0,0,0,0c0,0,0,0,0,0
	c0,0,0,0,0,0c0,0,0,0,0,0c0,0,0,0,0,0c0,0,0,0,0,0c0,0,0,0,0,0c0,0,0,0,0,0l0,0c0,0,0,0,0,0c0,0,0,0,0,0c0,0,0,0,0,0c0,0,0,0,0,0
	c0,0,0,0,0,0c0,0,0,0,0,0c0,0,0,0,0,0c0,0,0,0,0,0c0,0,0,0,0,0c0,0,0,0,0,0.1c0,0,0,0,0,0c0,0.1-0.1,0.2-0.2,0.3l-5.1,4.3
	c-0.3,0.3-0.8,0.2-1-0.1c-0.3-0.3-0.2-0.8,0.1-1l3.6-3H16.8c-0.4,0-0.7-0.3-0.7-0.7s0.3-0.7,0.7-0.7h13.6l-3.6-3
	c-0.3-0.3-0.3-0.7-0.1-1c0.3-0.3,0.7-0.3,1-0.1L32.9,3.1z"/>
<path id="XMLID_1174_" class="st0" d="M16.3,10.7c-0.1,0.1-0.2,0.2-0.2,0.3c0,0,0,0,0,0c0,0,0,0,0,0.1c0,0,0,0,0,0c0,0,0,0,0,0
	c0,0,0,0,0,0c0,0,0,0,0,0c0,0,0,0,0,0c0,0,0,0,0,0c0,0,0,0,0,0c0,0,0,0,0,0l0,0l0,0c0,0,0,0,0,0c0,0,0,0,0,0c0,0,0,0,0,0
	c0,0,0,0,0,0c0,0,0,0,0,0c0,0,0,0,0,0c0,0,0,0,0,0c0,0,0,0,0,0c0,0,0,0,0,0.1c0,0,0,0,0,0c0,0.1,0.1,0.2,0.2,0.3l5.1,4.3
	c0.3,0.3,0.8,0.2,1-0.1c0.3-0.3,0.2-0.8-0.1-1l-3.6-3h13.6c0.4,0,0.7-0.3,0.7-0.7c0-0.4-0.3-0.7-0.7-0.7H18.8l3.6-3
	c0.3-0.3,0.3-0.7,0.1-1c-0.3-0.3-0.7-0.3-1-0.1L16.3,10.7z"/>
<g id="XMLID_728_">
	<linearGradient id="XMLID_41_" gradientUnits="userSpaceOnUse" x1="-1.058315e-007" y1="16" x2="32" y2="16">
		<stop  offset="0" style="stop-color:#D6913C"/>
		<stop  offset="1" style="stop-color:#C76C39"/>
	</linearGradient>
	<circle id="XMLID_737_" class="st1" cx="16" cy="16" r="16"/>
</g>
<g id="XMLID_729_">
	<path id="XMLID_730_" class="st2" d="M16.4,22l-6.1,3.7l-1.1,0.7l0.4-1.2c0.3-0.7,0.5-1.5,0.6-2.2c0.1-0.8,0.2-1.6,0.2-2.3l0,0
		c-1.3-0.7-2.4-1.7-3.2-2.8C6.5,16.6,6,15.3,6,14c0-0.6,0.1-1.1,0.2-1.7c0.1-0.5,0.4-1.1,0.7-1.6c0.8-1.5,2.2-2.7,3.7-3.5
		C12.3,6.5,14.2,6,16.1,6c1.9,0,3.9,0.4,5.5,1.3c1.6,0.8,2.9,2,3.7,3.5c0.3,0.5,0.5,1,0.6,1.6c0.1,0.5,0.2,1.1,0.2,1.7
		c0,0.5-0.1,1-0.2,1.5c-0.1,0.5-0.3,1-0.5,1.4c-0.8,1.5-2.1,2.8-3.6,3.6C20.3,21.4,18.4,21.9,16.4,22L16.4,22L16.4,22z M21.2,12.8
		c-0.8,0-1.5,0.6-1.5,1.3c0,0.7,0.7,1.3,1.5,1.3c0.8,0,1.5-0.6,1.5-1.3C22.6,13.3,22,12.8,21.2,12.8L21.2,12.8z M16.1,12.8
		c-0.8,0-1.5,0.6-1.5,1.3c0,0.7,0.7,1.3,1.5,1.3c0.8,0,1.5-0.6,1.5-1.3C17.6,13.3,17,12.8,16.1,12.8L16.1,12.8z M11.2,12.8
		c-0.8,0-1.5,0.6-1.5,1.3c0,0.7,0.7,1.3,1.5,1.3c0.8,0,1.5-0.6,1.5-1.3C12.7,13.3,12,12.8,11.2,12.8z"/>
</g>
</svg>
