<?xml version="1.0" encoding="utf-8"?>
<!-- Generator: Adobe Illustrator 19.0.0, SVG Export Plug-In . SVG Version: 6.00 Build 0)  -->
<svg version="1.1" id="Camada_1" xmlns="http://www.w3.org/2000/svg" xmlns:xlink="http://www.w3.org/1999/xlink" x="0px" y="0px"
	 viewBox="0 0 32 32" style="enable-background:new 0 0 32 32;" xml:space="preserve">
<style type="text/css">
	.st0{display:none;fill:#B1B1B1;}
	.st1{fill:url(#XMLID_44_);}
	.st2{fill:#26703D;}
</style>
<path id="XMLID_1175_" class="st0" d="M32.9,3.1c0.1,0.1,0.2,0.2,0.2,0.3c0,0,0,0,0,0c0,0,0,0,0,0.1c0,0,0,0,0,0c0,0,0,0,0,0
	c0,0,0,0,0,0c0,0,0,0,0,0c0,0,0,0,0,0c0,0,0,0,0,0c0,0,0,0,0,0c0,0,0,0,0,0l0,0c0,0,0,0,0,0c0,0,0,0,0,0c0,0,0,0,0,0c0,0,0,0,0,0
	c0,0,0,0,0,0c0,0,0,0,0,0c0,0,0,0,0,0c0,0,0,0,0,0c0,0,0,0,0,0c0,0,0,0,0,0.1c0,0,0,0,0,0c0,0.1-0.1,0.2-0.2,0.3l-5.1,4.3
	c-0.3,0.3-0.8,0.2-1-0.1c-0.3-0.3-0.2-0.8,0.1-1l3.6-3H16.8c-0.4,0-0.7-0.3-0.7-0.7s0.3-0.7,0.7-0.7h13.6l-3.6-3
	c-0.3-0.3-0.3-0.7-0.1-1c0.3-0.3,0.7-0.3,1-0.1L32.9,3.1z"/>
<path id="XMLID_1174_" class="st0" d="M16.3,10.7c-0.1,0.1-0.2,0.2-0.2,0.3c0,0,0,0,0,0c0,0,0,0,0,0.1c0,0,0,0,0,0c0,0,0,0,0,0
	c0,0,0,0,0,0c0,0,0,0,0,0c0,0,0,0,0,0c0,0,0,0,0,0c0,0,0,0,0,0c0,0,0,0,0,0l0,0l0,0c0,0,0,0,0,0c0,0,0,0,0,0c0,0,0,0,0,0
	c0,0,0,0,0,0c0,0,0,0,0,0c0,0,0,0,0,0c0,0,0,0,0,0c0,0,0,0,0,0c0,0,0,0,0,0.1c0,0,0,0,0,0c0,0.1,0.1,0.2,0.2,0.3l5.1,4.3
	c0.3,0.3,0.8,0.2,1-0.1c0.3-0.3,0.2-0.8-0.1-1l-3.6-3h13.6c0.4,0,0.7-0.3,0.7-0.7c0-0.4-0.3-0.7-0.7-0.7H18.8l3.6-3
	c0.3-0.3,0.3-0.7,0.1-1c-0.3-0.3-0.7-0.3-1-0.1L16.3,10.7z"/>
<linearGradient id="XMLID_44_" gradientUnits="userSpaceOnUse" x1="-1.785620e-007" y1="16" x2="32" y2="16">
	<stop  offset="0" style="stop-color:#D6913C"/>
	<stop  offset="1" style="stop-color:#C76C39"/>
</linearGradient>
<path id="XMLID_41_" class="st1" d="M16,32C7.2,32,0,24.8,0,16C0,7.2,7.2,0,16,0c8.8,0,16,7.2,16,16C32,24.8,24.8,32,16,32z M16,1.3
	C7.9,1.3,1.3,7.9,1.3,16c0,8.1,6.6,14.7,14.7,14.7c8.1,0,14.7-6.6,14.7-14.7C30.7,7.9,24.1,1.3,16,1.3z"/>
<g id="XMLID_746_">
	<g id="XMLID_747_">
		<g id="XMLID_762_">
			<g id="_x31_2_23_">
				<g id="_x38__25_">
					<path id="XMLID_1222_" class="st2" d="M12.1,16c-0.7-0.2-0.8-0.4-0.8-0.4l-0.3-2c-0.1-0.5-0.5-0.9-1-0.9l-3.3-0.1
						c-0.5,0-0.9,0.3-1,0.8l-0.2,1.3c0,0.1,0,0.2,0,0.3C6,18.5,11.1,19.8,16,20c4.8,0.2,10.2-0.8,10.8-4.3c0-0.1,0-0.2,0-0.3
						l-0.1-1.3c0-0.5-0.4-0.9-0.9-0.9l-3.3-0.1c-0.5,0-1,0.3-1,0.8l-0.4,2c0,0-0.3,0.6-4.8,0.5c-1.6-0.1-2.7-0.2-3.4-0.3
						C12.5,16.1,12.3,16.1,12.1,16"/>
				</g>
			</g>
			<rect id="XMLID_764_" x="6.6" y="21.6" class="st2" width="19.3" height="1.5"/>
		</g>
		<path id="XMLID_761_" class="st2" d="M16,12.1c0,0.1,0.1,0.1,0.2,0.1c0,0,0,0,0,0c0,0,0,0,0,0c0,0,0,0,0,0c0,0,0,0,0,0
			c0,0,0,0,0,0c0,0,0,0,0,0c0,0,0,0,0,0c0,0,0,0,0,0c0,0,0,0,0,0c0,0,0,0,0,0l0,0c0,0,0,0,0,0c0,0,0,0,0,0c0,0,0,0,0,0c0,0,0,0,0,0
			c0,0,0,0,0,0c0,0,0,0,0,0c0,0,0,0,0,0c0,0,0,0,0,0c0,0,0,0,0,0c0,0,0,0,0,0c0,0,0,0,0,0c0.1,0,0.1-0.1,0.2-0.1l2.2-2.7
			c0.1-0.2,0.1-0.4,0-0.5c-0.2-0.1-0.4-0.1-0.5,0l-1.6,1.9V3.7c0-0.2-0.2-0.4-0.4-0.4c-0.2,0-0.4,0.2-0.4,0.4v7.1l-1.6-1.9
			c-0.1-0.2-0.4-0.2-0.5,0c-0.2,0.1-0.2,0.4,0,0.5L16,12.1z"/>
	</g>
</g>
</svg>
