<?xml version="1.0" encoding="utf-8"?>
<!-- Generator: Adobe Illustrator 19.0.0, SVG Export Plug-In . SVG Version: 6.00 Build 0)  -->
<svg version="1.1" id="Camada_1" xmlns="http://www.w3.org/2000/svg" xmlns:xlink="http://www.w3.org/1999/xlink" x="0px" y="0px"
	 viewBox="0 0 32 32" style="enable-background:new 0 0 32 32;" xml:space="preserve">
<style type="text/css">
	.st0{display:none;fill:#B1B1B1;}
	.st1{fill:#B1B1B1;}
</style>
<path id="XMLID_1175_" class="st0" d="M32.9,3.1c0.1,0.1,0.2,0.2,0.2,0.3c0,0,0,0,0,0c0,0,0,0,0,0.1c0,0,0,0,0,0c0,0,0,0,0,0
	c0,0,0,0,0,0c0,0,0,0,0,0c0,0,0,0,0,0c0,0,0,0,0,0c0,0,0,0,0,0c0,0,0,0,0,0l0,0c0,0,0,0,0,0c0,0,0,0,0,0c0,0,0,0,0,0c0,0,0,0,0,0
	c0,0,0,0,0,0c0,0,0,0,0,0c0,0,0,0,0,0c0,0,0,0,0,0c0,0,0,0,0,0c0,0,0,0,0,0.1c0,0,0,0,0,0c0,0.1-0.1,0.2-0.2,0.3l-5.1,4.3
	c-0.3,0.3-0.8,0.2-1-0.1c-0.3-0.3-0.2-0.8,0.1-1l3.6-3H16.8c-0.4,0-0.7-0.3-0.7-0.7s0.3-0.7,0.7-0.7h13.6l-3.6-3
	c-0.3-0.3-0.3-0.7-0.1-1c0.3-0.3,0.7-0.3,1-0.1L32.9,3.1z"/>
<path id="XMLID_1174_" class="st0" d="M16.3,10.7c-0.1,0.1-0.2,0.2-0.2,0.3c0,0,0,0,0,0c0,0,0,0,0,0.1c0,0,0,0,0,0c0,0,0,0,0,0
	c0,0,0,0,0,0c0,0,0,0,0,0c0,0,0,0,0,0c0,0,0,0,0,0c0,0,0,0,0,0c0,0,0,0,0,0l0,0l0,0c0,0,0,0,0,0c0,0,0,0,0,0c0,0,0,0,0,0
	c0,0,0,0,0,0c0,0,0,0,0,0c0,0,0,0,0,0c0,0,0,0,0,0c0,0,0,0,0,0c0,0,0,0,0,0.1c0,0,0,0,0,0c0,0.1,0.1,0.2,0.2,0.3l5.1,4.3
	c0.3,0.3,0.8,0.2,1-0.1c0.3-0.3,0.2-0.8-0.1-1l-3.6-3h13.6c0.4,0,0.7-0.3,0.7-0.7c0-0.4-0.3-0.7-0.7-0.7H18.8l3.6-3
	c0.3-0.3,0.3-0.7,0.1-1c-0.3-0.3-0.7-0.3-1-0.1L16.3,10.7z"/>
<g id="XMLID_254_">
	<path id="XMLID_259_" class="st1" d="M32,17.5h-6.5v6.3c0,0,0,0.1,0,0.1H32c0,0,0-0.1,0-0.1V17.5z"/>
	<path id="XMLID_258_" class="st1" d="M15.1,14.5h6.8V8.2c0,0,0-0.1,0-0.1h-6.8V14.5z"/>
	<path id="XMLID_257_" class="st1" d="M21.9,17.5h-6.8V24h6.8c0,0,0-0.1,0-0.1V17.5z"/>
	<path id="XMLID_256_" class="st1" d="M25.2,14.5H32V8.2c0,0,0-0.1,0-0.1h-6.8V14.5z"/>
	<g id="_x31_2_4_">
		<g id="_x38__5_">
			<path id="XMLID_255_" class="st1" d="M5.7,9.9C6,8.9,6.2,8.8,6.2,8.8l3-0.5c0.8-0.1,1.3-0.8,1.3-1.5l0-5c0-0.7-0.5-1.3-1.3-1.4
				L7.3,0C7.1,0,7,0,6.8,0C1.7,0.9,0,8.6,0,16c0,7.2,1.7,15.3,6.9,16c0.1,0,0.3,0,0.4,0l2-0.3c0.7-0.1,1.3-0.7,1.3-1.4l0-5
				c0-0.8-0.6-1.4-1.3-1.5l-3-0.5c0,0-1-0.4-1-7.2c0-2.4,0.1-4,0.3-5.1C5.6,10.5,5.7,10.2,5.7,9.9"/>
		</g>
	</g>
</g>
</svg>
