<?xml version="1.0" encoding="utf-8"?>
<!-- Generator: Adobe Illustrator 19.0.0, SVG Export Plug-In . SVG Version: 6.00 Build 0)  -->
<svg version="1.1" id="Camada_1" xmlns="http://www.w3.org/2000/svg" xmlns:xlink="http://www.w3.org/1999/xlink" x="0px" y="0px"
	 viewBox="0 0 32 32" style="enable-background:new 0 0 32 32;" xml:space="preserve">
<style type="text/css">
	.st0{fill:#26703D;}
	.st1{fill:url(#XMLID_5_);}
</style>
<g id="XMLID_191_">
	<g id="XMLID_72_">
		<g id="_x31_2">
			<g id="_x38__2_">
				<path id="XMLID_68_" class="st0" d="M12.7,14.1c-0.3-0.6-0.3-0.7-0.3-0.7l1-1.5c0.3-0.4,0.2-0.9-0.1-1.2l-2.1-2.1
					c-0.3-0.3-0.8-0.3-1.1-0.1L9.1,9.2C9.1,9.3,9,9.4,8.9,9.5C7.1,12,9.7,16,12.8,19.2c3.1,3.1,7.2,5.8,9.7,3.8
					c0.1-0.1,0.1-0.1,0.2-0.2l0.7-0.9c0.3-0.3,0.2-0.8-0.1-1.1l-2.1-2.1c-0.3-0.3-0.8-0.4-1.2-0.1l-1.5,1c0,0-0.6,0.2-3.5-2.7
					c-1-1-1.7-1.8-2.1-2.3C12.9,14.4,12.8,14.3,12.7,14.1"/>
			</g>
		</g>
	</g>
	<path id="XMLID_179_" class="st0" d="M18.8,12.8c0,0.1,0,0.1,0,0.2c0,0,0,0,0,0c0,0,0,0,0,0c0,0,0,0,0,0c0,0,0,0,0,0c0,0,0,0,0,0
		c0,0,0,0,0,0c0,0,0,0,0,0c0,0,0,0,0,0c0,0,0,0,0,0c0,0,0,0,0,0l0,0c0,0,0,0,0,0l0,0c0,0,0,0,0,0c0,0,0,0,0,0c0,0,0,0,0,0
		c0,0,0,0,0,0c0,0,0,0,0,0c0,0,0,0,0,0c0,0,0,0,0,0c0,0,0,0,0,0c0,0,0,0,0,0c0.1,0,0.1,0,0.2,0l2.9-0.2c0.2,0,0.3-0.2,0.3-0.3
		c0-0.2-0.2-0.3-0.3-0.3l-2,0.2L24,8.3c0.1-0.1,0.1-0.3,0-0.4c-0.1-0.1-0.3-0.1-0.4,0L19.5,12l0.2-2c0-0.2-0.1-0.3-0.3-0.3
		c-0.2,0-0.3,0.1-0.3,0.3L18.8,12.8z"/>
</g>
<linearGradient id="XMLID_5_" gradientUnits="userSpaceOnUse" x1="9.913492e-010" y1="16" x2="32" y2="16">
	<stop  offset="0" style="stop-color:#D6913C"/>
	<stop  offset="1" style="stop-color:#C76C39"/>
</linearGradient>
<path id="XMLID_2_" class="st1" d="M16,32C7.2,32,0,24.8,0,16C0,7.2,7.2,0,16,0c8.8,0,16,7.2,16,16C32,24.8,24.8,32,16,32z M16,1.3
	C7.9,1.3,1.3,7.9,1.3,16c0,8.1,6.6,14.7,14.7,14.7c8.1,0,14.7-6.6,14.7-14.7C30.7,7.9,24.1,1.3,16,1.3z"/>
</svg>
