<?xml version="1.0" encoding="utf-8"?>
<!-- Generator: Adobe Illustrator 19.0.0, SVG Export Plug-In . SVG Version: 6.00 Build 0)  -->
<svg version="1.1" id="Camada_1" xmlns="http://www.w3.org/2000/svg" xmlns:xlink="http://www.w3.org/1999/xlink" x="0px" y="0px"
	 viewBox="0 0 32 32" style="enable-background:new 0 0 32 32;" xml:space="preserve">
<style type="text/css">
	.st0{display:none;fill:#B1B1B1;}
	.st1{fill:#B1B1B1;}
</style>
<path id="XMLID_1175_" class="st0" d="M32.9,3.1c0.1,0.1,0.2,0.2,0.2,0.3c0,0,0,0,0,0c0,0,0,0,0,0.1c0,0,0,0,0,0c0,0,0,0,0,0
	c0,0,0,0,0,0c0,0,0,0,0,0c0,0,0,0,0,0c0,0,0,0,0,0c0,0,0,0,0,0c0,0,0,0,0,0l0,0c0,0,0,0,0,0c0,0,0,0,0,0c0,0,0,0,0,0c0,0,0,0,0,0
	c0,0,0,0,0,0c0,0,0,0,0,0c0,0,0,0,0,0c0,0,0,0,0,0c0,0,0,0,0,0c0,0,0,0,0,0.1c0,0,0,0,0,0c0,0.1-0.1,0.2-0.2,0.3l-5.1,4.3
	c-0.3,0.3-0.8,0.2-1-0.1c-0.3-0.3-0.2-0.8,0.1-1l3.6-3H16.8c-0.4,0-0.7-0.3-0.7-0.7s0.3-0.7,0.7-0.7h13.6l-3.6-3
	c-0.3-0.3-0.3-0.7-0.1-1c0.3-0.3,0.7-0.3,1-0.1L32.9,3.1z"/>
<path id="XMLID_1174_" class="st0" d="M16.3,10.7c-0.1,0.1-0.2,0.2-0.2,0.3c0,0,0,0,0,0c0,0,0,0,0,0.1c0,0,0,0,0,0c0,0,0,0,0,0
	c0,0,0,0,0,0c0,0,0,0,0,0c0,0,0,0,0,0c0,0,0,0,0,0c0,0,0,0,0,0c0,0,0,0,0,0l0,0l0,0c0,0,0,0,0,0c0,0,0,0,0,0c0,0,0,0,0,0
	c0,0,0,0,0,0c0,0,0,0,0,0c0,0,0,0,0,0c0,0,0,0,0,0c0,0,0,0,0,0c0,0,0,0,0,0.1c0,0,0,0,0,0c0,0.1,0.1,0.2,0.2,0.3l5.1,4.3
	c0.3,0.3,0.8,0.2,1-0.1c0.3-0.3,0.2-0.8-0.1-1l-3.6-3h13.6c0.4,0,0.7-0.3,0.7-0.7c0-0.4-0.3-0.7-0.7-0.7H18.8l3.6-3
	c0.3-0.3,0.3-0.7,0.1-1c-0.3-0.3-0.7-0.3-1-0.1L16.3,10.7z"/>
<g id="XMLID_612_">
	<path id="XMLID_615_" class="st1" d="M7.2,0.2C7.1,0.1,7,0.1,6.9,0l0,0c0,0,0,0-0.1,0c0,0,0,0,0,0c0,0,0,0,0,0c0,0,0,0,0,0
		c0,0,0,0,0,0c0,0,0,0,0,0c0,0,0,0,0,0c0,0,0,0,0,0l0,0l0,0l0,0l0,0c0,0,0,0,0,0c0,0,0,0,0,0c0,0,0,0,0,0c0,0,0,0,0,0c0,0,0,0,0,0
		c0,0,0,0,0,0c0,0,0,0,0,0c0,0,0,0-0.1,0c0,0,0,0,0,0c-0.1,0-0.2,0.1-0.3,0.2l-4,4.8C1.9,5.3,2,5.8,2.2,6c0.3,0.2,0.7,0.2,0.9-0.1
		L6,2.6v12.8c0,0.4,0.3,0.7,0.7,0.7c0.4,0,0.7-0.3,0.7-0.7V2.6l2.8,3.4c0.2,0.3,0.7,0.3,0.9,0.1c0.3-0.2,0.3-0.7,0.1-1L7.2,0.2z"/>
	<g id="_x31_2_6_">
		<g id="_x38__7_">
			<path id="XMLID_613_" class="st1" d="M22,11.8c0.6-1.1,0.4-1.4,0.4-1.4l-2.3-2.8c-0.6-0.7-0.6-1.7,0-2.4l3.8-4.6
				c0.5-0.7,1.5-0.8,2.2-0.3L28,1.5c0.2,0.1,0.3,0.2,0.4,0.4c4,4.7-0.3,13.1-5.8,19.8c-5.4,6.6-13,12.7-18.2,9.3
				c-0.1-0.1-0.3-0.2-0.4-0.3L2.4,29c-0.6-0.6-0.6-1.6-0.1-2.3l3.8-4.6c0.6-0.7,1.6-0.9,2.3-0.4l3.1,1.8c0,0,1.2,0.3,6.3-5.9
				c1.8-2.2,2.9-3.8,3.6-4.9C21.7,12.4,21.8,12.1,22,11.8"/>
		</g>
	</g>
</g>
</svg>
