<?xml version="1.0" encoding="utf-8"?>
<!-- Generator: Adobe Illustrator 19.0.0, SVG Export Plug-In . SVG Version: 6.00 Build 0)  -->
<svg version="1.1" id="Camada_1" xmlns="http://www.w3.org/2000/svg" xmlns:xlink="http://www.w3.org/1999/xlink" x="0px" y="0px"
	 viewBox="0 0 32 13.2" style="enable-background:new 0 0 32 13.2;" xml:space="preserve">
<style type="text/css">
	.st0{display:none;fill:#B1B1B1;}
	.st1{fill:#963033;}
	.st2{fill:#C14433;}
	.st3{fill:#C77B39;}
	.st4{fill:#65181A;}
	.st5{fill:#C56638;}
	.st6{fill:#6D1F25;}
	.st7{fill:#AE2936;}
	.st8{fill:#79252B;}
	.st9{fill:#C77A33;}
	.st10{fill:#D6913C;}
	.st11{fill:#DBA549;}
</style>
<path id="XMLID_1175_" class="st0" d="M32.9-6.3C33-6.2,33.1-6.1,33.1-6c0,0,0,0,0,0c0,0,0,0,0,0.1c0,0,0,0,0,0c0,0,0,0,0,0
	c0,0,0,0,0,0c0,0,0,0,0,0c0,0,0,0,0,0c0,0,0,0,0,0c0,0,0,0,0,0c0,0,0,0,0,0l0,0c0,0,0,0,0,0c0,0,0,0,0,0c0,0,0,0,0,0c0,0,0,0,0,0
	c0,0,0,0,0,0c0,0,0,0,0,0c0,0,0,0,0,0c0,0,0,0,0,0c0,0,0,0,0,0c0,0,0,0,0,0.1c0,0,0,0,0,0c0,0.1-0.1,0.2-0.2,0.3l-5.1,4.3
	c-0.3,0.3-0.8,0.2-1-0.1c-0.3-0.3-0.2-0.8,0.1-1l3.6-3H16.8c-0.4,0-0.7-0.3-0.7-0.7s0.3-0.7,0.7-0.7h13.6l-3.6-3
	c-0.3-0.3-0.3-0.7-0.1-1c0.3-0.3,0.7-0.3,1-0.1L32.9-6.3z"/>
<path id="XMLID_1174_" class="st0" d="M16.3,1.3c-0.1,0.1-0.2,0.2-0.2,0.3c0,0,0,0,0,0c0,0,0,0,0,0.1c0,0,0,0,0,0c0,0,0,0,0,0
	c0,0,0,0,0,0c0,0,0,0,0,0c0,0,0,0,0,0c0,0,0,0,0,0c0,0,0,0,0,0c0,0,0,0,0,0l0,0l0,0c0,0,0,0,0,0c0,0,0,0,0,0c0,0,0,0,0,0
	c0,0,0,0,0,0c0,0,0,0,0,0c0,0,0,0,0,0c0,0,0,0,0,0c0,0,0,0,0,0c0,0,0,0,0,0.1c0,0,0,0,0,0c0,0.1,0.1,0.2,0.2,0.3l5.1,4.3
	c0.3,0.3,0.8,0.2,1-0.1c0.3-0.3,0.2-0.8-0.1-1l-3.6-3h13.6c0.4,0,0.7-0.3,0.7-0.7s-0.3-0.7-0.7-0.7H18.8l3.6-3
	c0.3-0.3,0.3-0.7,0.1-1c-0.3-0.3-0.7-0.3-1-0.1L16.3,1.3z"/>
<g id="XMLID_748_">
	<g id="XMLID_758_">
		<polygon id="XMLID_834_" class="st1" points="0,6.6 1.5,7.2 2.9,8.2 1.4,9.3 0,9.9 		"/>
		<polygon id="XMLID_833_" class="st2" points="0,3.3 1.4,3.9 2.9,4.9 1.4,6.1 0,6.6 		"/>
		<polygon id="XMLID_802_" class="st3" points="2.9,1.6 4.5,2.3 5.7,3.3 2.9,4.9 2.6,3.3 		"/>
		<polygon id="XMLID_801_" class="st1" points="8.6,1.6 11.4,3.3 10.1,4.3 8.6,4.9 8.4,3.2 		"/>
		<polygon id="XMLID_800_" class="st4" points="11.4,6.6 9.8,7.2 8.6,8.2 11.4,9.9 		"/>
		<polygon id="XMLID_799_" class="st2" points="5.7,0 8.6,1.6 7.3,2.6 5.7,3.3 5.5,1.6 		"/>
		<polygon id="XMLID_798_" class="st5" points="5.7,3.3 2.9,1.6 5.7,0 		"/>
		<polygon id="XMLID_797_" class="st6" points="2.9,8.2 5.7,9.9 4.5,10.9 2.9,11.5 2.7,9.9 		"/>
		<polygon id="XMLID_796_" class="st5" points="2.9,4.9 0,3.3 2.9,1.6 		"/>
		<polygon id="XMLID_795_" class="st7" points="2.9,8.2 0,6.6 2.9,4.9 		"/>
		<polygon id="XMLID_794_" class="st8" points="11.4,3.3 8.6,4.9 9.9,6 11.4,6.6 		"/>
		<polygon id="XMLID_793_" class="st6" points="8.6,8.2 11.4,6.6 8.6,4.9 		"/>
		<polygon id="XMLID_792_" class="st8" points="2.9,11.5 0,9.9 2.9,8.2 		"/>
		<polygon id="XMLID_791_" class="st4" points="5.7,9.9 2.9,11.5 5.7,13.2 		"/>
		<polygon id="XMLID_790_" class="st7" points="8.6,4.9 5.7,3.3 8.6,1.6 		"/>
		<g id="XMLID_759_">
			<polygon id="XMLID_766_" class="st9" points="5.8,6.8 11.4,10 5.8,13.2 			"/>
			<polygon id="XMLID_763_" class="st10" points="7.7,10.1 5.8,6.8 11.4,10 			"/>
			<polygon id="XMLID_760_" class="st11" points="7.7,10.1 5.8,13.2 5.8,6.8 			"/>
		</g>
	</g>
	<g id="XMLID_749_">
		<path id="XMLID_755_" class="st10" d="M19.9,6.6c0-1.4-1.1-2.5-2.5-2.5c-1.4,0-2.5,1.1-2.5,2.5c0,1.4,1.1,2.5,2.5,2.5
			c0.3,0,0.5,0,0.8-0.1l1,1.2l0.5-0.5l-0.9-1.1C19.5,8.2,19.9,7.4,19.9,6.6z M17.4,4.7c1,0,1.9,0.8,1.9,1.9c0,1-0.8,1.9-1.9,1.9
			c-1,0-1.8-0.8-1.8-1.9C15.5,5.5,16.4,4.7,17.4,4.7z"/>
		<path id="XMLID_754_" class="st10" d="M24.2,6.9c0,0.9-0.6,1.5-1.4,1.5c-0.8,0-1.4-0.6-1.4-1.5V4.1h-0.7v2.8
			c0,1.3,0.9,2.2,2.1,2.2c1.2,0,2.1-0.9,2.1-2.2V4.1h-0.7V6.9z"/>
		<rect id="XMLID_753_" x="25.9" y="4.1" class="st10" width="0.7" height="4.8"/>
		<path id="XMLID_750_" class="st10" d="M29.5,4.1h-1.7V9h1.7C31,9,32,8,32,6.5C32,5.1,31,4.1,29.5,4.1z M29.5,8.4h-1V4.8h1
			c1.1,0,1.9,0.7,1.9,1.8C31.3,7.6,30.5,8.4,29.5,8.4z"/>
	</g>
</g>
</svg>
