<svg version="1.1" id="svg454" width="200" height="35.54" xmlns="http://www.w3.org/2000/svg"><defs id="defs423"><style id="style421">.cls-1{fill:#009edb}</style></defs><g id="Horizontal-K_Blue" data-name="Horizontal-K+Blue" transform="translate(-1.208 -1.035) scale(.57819)"><path id="polygon425" d="M117.43 23.16v7.45h15.19v11.96h-15.19v7.89h18.56v11.91h-30.8V11.2h30.8v11.96z"/><path d="M88.16 30.93c-.46-3.16-1.43-5.46-2.51-6.5a7.77 7.77 0 0 0-4.27-1.71c-2.36 0-4.25 1.48-5.22 4a27.45 27.45 0 0 0-1.73 10.7c0 9.05 2.35 13.69 7.11 13.69 3.62 0 6-3.16 6.62-8.84H100c-.49 6.3-2.22 11.54-5.22 15.35a15.88 15.88 0 0 1-12.63 5.63 20.09 20.09 0 0 1-10.75-2.9 18.59 18.59 0 0 1-6.93-9A37.37 37.37 0 0 1 62 37.44a40.76 40.76 0 0 1 2.64-15.34 22.84 22.84 0 0 1 7.25-9 18.39 18.39 0 0 1 8.86-2.73c6.63.21 11.52 2.52 14.2 6.1a28.19 28.19 0 0 1 4.75 14.46z" id="path427"/><path id="rect429" d="M45 11.2h12.21v51.12H45z"/><path id="polygon431" d="M26.09 28.26V11.2h11.78v51.13H26.26L13.59 34.65l-.05 11.94.05 15.74H2.09V11.2h10.99l13.01 28.14z"/><path class="cls-1" id="rect433" d="M99.93 31.02h11.22v11.22H99.93z"/><path class="cls-1" id="rect435" d="M57.21 31.02h11.22v11.22H57.21z"/><path class="cls-1" id="rect437" d="M33.78 31.02H45v11.22H33.78z"/><path d="M216.29 42.58a.3.3 0 0 0-.22-.1h-6.62a.29.29 0 0 0-.29.27c-.59 8.58-6.16 14.13-14.16 14.13-10.48 0-16.74-7.69-16.74-20.56 0-12.32 6.35-20 16.59-20 7.35 0 12.41 3.8 13.89 10.43a.28.28 0 0 0 .26.25h6.63a.3.3 0 0 0 .22-.1.25.25 0 0 0 .06-.22c-1.5-10.15-9.51-16.45-20.92-16.45-7.32 0-13.39 2.58-17.54 7.45-4.13 4.7-6.4 11.47-6.4 19.09 0 8.06 2 14.3 6.25 19.08 4.25 4.78 9.89 7.15 17.08 7.15 12.62 0 20.63-7.36 22-20.2a.29.29 0 0 0-.09-.22z" id="path439"/><path d="M258 61.49 240.72 36.3l16.19-23.94A.62.62 0 0 0 257 12a.57.57 0 0 0-.57-.57h-7.39a.59.59 0 0 0-.47.25l-12.45 18.79-12-18.77a.59.59 0 0 0-.48-.26h-8a.58.58 0 0 0-.5.3.59.59 0 0 0 0 .59l16.21 24-17.25 25.16a.56.56 0 0 0 .47.88h7.53a.55.55 0 0 0 .47-.25L236 42.28l12.9 19.84a.55.55 0 0 0 .47.25h8.14a.56.56 0 0 0 .5-.3.55.55 0 0 0-.01-.58z" id="path441"/><path class="cls-1" d="M281.77 41.83c0-8.63-5.23-14.42-13-14.42s-13 5.93-13 14.42 5.36 14.43 13 14.43 13-5.8 13-14.43zm-3.57 0c0 6.57-3.88 11.15-9.45 11.15-6.49 0-9.45-5.78-9.45-11.15 0-6.57 3.89-11.15 9.45-11.15 5.56 0 9.45 4.58 9.45 11.15z" id="path443"/><path class="cls-1" d="m288.61 28.44-.34-.34-.2-.09h-2.32l-.2.09-.34.33-.09.21V55l.09.2.34.34.2.08h2.32l.2-.09.34-.33.08-.2V40.82c0-6.16 3.45-10.14 8.78-10.14 4.61 0 6.76 2.37 6.76 7.45V55l.08.2.34.33.2.09h2.32l.2-.09.34-.33.08-.2V38.34c0-3.27-.62-5.64-2-7.47-1.75-2.33-4.47-3.46-8.3-3.46a11.24 11.24 0 0 0-8.83 4.07v-2.84z" id="path445"/><path class="cls-1" d="m334.9 42.8.34-.34.08-.2v-1c0-4.53-1.21-7.88-3.81-10.54a12 12 0 0 0-8.51-3.31 11.54 11.54 0 0 0-8.65 3.38A15.83 15.83 0 0 0 310.27 42c0 4 .84 7 2.74 9.59a11.74 11.74 0 0 0 9.81 4.64c6.78 0 11.15-3.58 12.28-10.09v-.21l-.07-.23-.33-.39-.22-.1h-2.28l-.18.06-.33.27-.1.16v.15a8.4 8.4 0 0 1-8.74 7.1 8.07 8.07 0 0 1-6.85-3.29 12 12 0 0 1-2.16-6.77h20.86zm-21-3.19a12.32 12.32 0 0 1 2.8-6.19 8.43 8.43 0 0 1 12.2-.25 10.28 10.28 0 0 1 2.78 6.44z" id="path447"/><path class="cls-1" d="M348 41a21.26 21.26 0 0 0-18.28-21 21.22 21.22 0 0 0-31.67-11.77 17.1 17.1 0 0 0-13.45-6.44 17.41 17.41 0 0 0-16.5 12.15 17.33 17.33 0 0 0-14.79 14.53 2 2 0 0 0 1.69 2.24 2 2 0 0 0 1.46-.37 2 2 0 0 0 .77-1.29 13.36 13.36 0 0 1 12.54-11.31 2 2 0 0 0 1.83-1.55 13.42 13.42 0 0 1 13-10.47A13.28 13.28 0 0 1 295.92 12a2 2 0 0 0 2.87.51 17.28 17.28 0 0 1 27.43 9.74 2 2 0 0 0 1.78 1.52 17.29 17.29 0 0 1-1.25 34.53h-64.37a1.71 1.71 0 0 0-.49.07l-.2.17-.19.52v.26l1.84 2.68.38.24h63.03A21.24 21.24 0 0 0 348 41Z" id="path449"/><path class="cls-1" id="rect451" d="M148.57 31.03h11.22v11.22h-11.22z"/></g></svg>