<?xml version="1.0" encoding="utf-8"?>
<!-- Generator: Adobe Illustrator 19.0.0, SVG Export Plug-In . SVG Version: 6.00 Build 0)  -->
<svg version="1.1" id="Camada_1" xmlns="http://www.w3.org/2000/svg" xmlns:xlink="http://www.w3.org/1999/xlink" x="0px" y="0px"
	 viewBox="0 0 32 32" style="enable-background:new 0 0 32 32;" xml:space="preserve">
<style type="text/css">
	.st0{fill:#FFFFFF;}
	.st1{fill:#FFFFFF;stroke:#FFFFFF;stroke-width:1.5;stroke-miterlimit:10;}
</style>
<g id="XMLID_1949_">
	<g id="XMLID_1952_">
		<path id="XMLID_5_" class="st0" d="M16,32C7.2,32,0,24.8,0,16C0,7.2,7.2,0,16,0c8.8,0,16,7.2,16,16C32,24.8,24.8,32,16,32z
			 M16,0.4C7.4,0.4,0.4,7.4,0.4,16c0,8.6,7,15.6,15.6,15.6s15.6-7,15.6-15.6C31.6,7.4,24.6,0.4,16,0.4z"/>
	</g>
	<g id="_x31__7_">
		<path id="XMLID_1951_" class="st1" d="M16,16.9c0.4,0,0.6-0.3,0.6-0.6V7.5c0-0.4-0.3-0.6-0.6-0.6c-0.4,0-0.6,0.3-0.6,0.6v8.7
			C15.4,16.6,15.6,16.9,16,16.9z"/>
		<path id="XMLID_1950_" class="st1" d="M20.6,10.2c-0.3-0.2-0.7-0.1-0.9,0.2c-0.2,0.3-0.1,0.7,0.2,0.9c1.9,1.3,3,3.4,3,5.7
			c0,3.8-3.1,6.9-6.9,6.9s-6.9-3.1-6.9-6.9c0-2.3,1.1-4.4,3-5.7c0.3-0.2,0.4-0.6,0.2-0.9c-0.2-0.3-0.6-0.4-0.9-0.2
			c-2.2,1.5-3.6,4.1-3.6,6.8c0,4.5,3.7,8.2,8.2,8.2s8.2-3.7,8.2-8.2C24.2,14.2,22.8,11.7,20.6,10.2z"/>
	</g>
</g>
</svg>
