<?xml version="1.0" encoding="utf-8"?>
<!-- Generator: Adobe Illustrator 19.0.0, SVG Export Plug-In . SVG Version: 6.00 Build 0)  -->
<svg version="1.1" id="Camada_1" xmlns="http://www.w3.org/2000/svg" xmlns:xlink="http://www.w3.org/1999/xlink" x="0px" y="0px"
	 viewBox="0 0 32 32" style="enable-background:new 0 0 32 32;" xml:space="preserve">
<style type="text/css">
	.st0{fill:#FFFFFF;}
</style>
<g id="XMLID_1978_">
	<path id="XMLID_4_" class="st0" d="M16,32C7.2,32,0,24.8,0,16S7.2,0,16,0s16,7.2,16,16S24.8,32,16,32z M16,0.4
		C7.4,0.4,0.4,7.4,0.4,16s7,15.6,15.6,15.6s15.6-7,15.6-15.6S24.6,0.4,16,0.4z"/>
	<path id="XMLID_3_" class="st0" d="M12,22c-0.3,0-0.5-0.2-0.5-0.5v-11c0-0.3,0.2-0.5,0.5-0.5c0.3,0,0.5,0.2,0.5,0.5v11
		C12.6,21.8,12.3,22,12,22z"/>
	<path id="XMLID_2_" class="st0" d="M19.6,22c-0.3,0-0.5-0.2-0.5-0.5v-11c0-0.3,0.2-0.5,0.5-0.5s0.5,0.2,0.5,0.5v11
		C20.2,21.8,19.9,22,19.6,22z"/>
</g>
</svg>
