<?xml version="1.0" encoding="utf-8"?>
<!-- Generator: Adobe Illustrator 19.0.0, SVG Export Plug-In . SVG Version: 6.00 Build 0)  -->
<svg version="1.1" id="Camada_1" xmlns="http://www.w3.org/2000/svg" xmlns:xlink="http://www.w3.org/1999/xlink" x="0px" y="0px"
	 viewBox="0 0 32 32" style="enable-background:new 0 0 32 32;" xml:space="preserve">
<style type="text/css">
	.st0{fill:url(#XMLID_2_);}
	.st1{fill:#FFFFFF;}
</style>
<g id="XMLID_728_">
	<linearGradient id="XMLID_2_" gradientUnits="userSpaceOnUse" x1="0" y1="16" x2="32" y2="16">
		<stop  offset="0" style="stop-color:#D6913C"/>
		<stop  offset="1" style="stop-color:#C76C39"/>
	</linearGradient>
	<circle id="XMLID_737_" class="st0" cx="16" cy="16" r="16"/>
</g>
<g id="XMLID_14_">
	<path id="XMLID_15_" class="st1" d="M11.2,25.9c-1.1,0-1.9-0.9-1.9-1.9V8.1c0-1.1,0.9-1.9,1.9-1.9s1.9,0.9,1.9,1.9V24
		C13.2,25.1,12.3,25.9,11.2,25.9z"/>
	<path id="XMLID_23_" class="st1" d="M20.6,25.9c-1.1,0-1.9-0.9-1.9-1.9V8.1c0-1.1,0.9-1.9,1.9-1.9s1.9,0.9,1.9,1.9V24
		C22.6,25.1,21.7,25.9,20.6,25.9z"/>
</g>
</svg>
