<?xml version="1.0" encoding="utf-8"?>
<!-- Generator: Adobe Illustrator 19.0.0, SVG Export Plug-In . SVG Version: 6.00 Build 0)  -->
<svg version="1.1" id="Camada_1" xmlns="http://www.w3.org/2000/svg" xmlns:xlink="http://www.w3.org/1999/xlink" x="0px" y="0px"
	 viewBox="0 0 32 32" style="enable-background:new 0 0 32 32;" xml:space="preserve">
<style type="text/css">
	.st0{fill:url(#XMLID_2_);}
	.st1{fill:#FFFFFF;}
</style>
<g id="XMLID_728_">
	<linearGradient id="XMLID_2_" gradientUnits="userSpaceOnUse" x1="-7.540075e-008" y1="16" x2="32" y2="16">
		<stop  offset="0" style="stop-color:#D6913C"/>
		<stop  offset="1" style="stop-color:#C76C39"/>
	</linearGradient>
	<circle id="XMLID_737_" class="st0" cx="16" cy="16" r="16"/>
</g>
<g id="XMLID_707_">
	<path id="XMLID_708_" class="st1" d="M16.1,5.5c-5.9,0-10.6,4.8-10.6,10.6s4.8,10.6,10.6,10.6S26.8,22,26.8,16.2H25
		c0,4.9-4,8.9-8.9,8.9s-8.9-4-8.9-8.9c0-4.9,4-8.9,8.9-8.9c3.1,0,5.8,1.6,7.5,4.1l-2.1,2.1h5.4V8.2l-1.9,1.9
		C22.9,7.3,19.7,5.5,16.1,5.5z"/>
</g>
</svg>
