<?xml version="1.0" encoding="utf-8"?>
<!-- Generator: Adobe Illustrator 19.0.0, SVG Export Plug-In . SVG Version: 6.00 Build 0)  -->
<svg version="1.1" id="Camada_1" xmlns="http://www.w3.org/2000/svg" xmlns:xlink="http://www.w3.org/1999/xlink" x="0px" y="0px"
	 viewBox="0 0 31.9 19.8" style="enable-background:new 0 0 31.9 19.8;" xml:space="preserve">
<style type="text/css">
	.st0{fill:#959595;}
</style>
<path id="XMLID_407_" class="st0" d="M16,0C10.4,0,5.1,3.1,0.6,9L0,9.9l0.6,0.9c4.5,5.9,9.8,9,15.3,9c5.5,0,10.8-3.1,15.3-9l0.6-0.9
	L31.3,9C26.8,3.1,21.5,0,16,0z M11.7,9.9c0-2.3,1.9-4.2,4.2-4.2s4.2,1.9,4.2,4.2s-1.9,4.2-4.2,4.2S11.7,12.3,11.7,9.9z M3.6,9.9
	c3.7-4.6,8-7,12.3-7.1c-3.9,0.1-7,3.2-7,7.1c0,3.6,2.6,6.5,6.1,7C10.9,16.5,7,14.2,3.6,9.9z M17,16.9c3.4-0.5,6.1-3.4,6.1-7
	c0-3.9-3.1-7-7-7.1c4.3,0,8.5,2.5,12.3,7.1C24.9,14.2,21,16.5,17,16.9z"/>
</svg>
